<mxfile host="app.diagrams.net" modified="2022-02-27T13:03:42.284Z" agent="5.0 (Windows NT 10.0; Win64; x64) AppleWebKit/537.36 (KHTML, like Gecko) Chrome/98.0.4758.102 Safari/537.36" etag="jJYQpPh0dw-jIMTWw43x" version="16.6.4" type="github">
  <diagram id="R2lEEEUBdFMjLlhIrx00" name="Page-1">
    <mxGraphModel dx="1422" dy="794" grid="1" gridSize="10" guides="1" tooltips="1" connect="1" arrows="1" fold="1" page="1" pageScale="1" pageWidth="850" pageHeight="1100" math="0" shadow="0" extFonts="Permanent Marker^https://fonts.googleapis.com/css?family=Permanent+Marker">
      <root>
        <mxCell id="0" />
        <mxCell id="1" parent="0" />
        <mxCell id="FWaF_X9_jeXHNPgo_lxy-1" value="USER" style="rounded=0;whiteSpace=wrap;html=1;" vertex="1" parent="1">
          <mxGeometry x="305" y="170" width="120" height="60" as="geometry" />
        </mxCell>
        <mxCell id="FWaF_X9_jeXHNPgo_lxy-13" style="edgeStyle=none;rounded=0;orthogonalLoop=1;jettySize=auto;html=1;entryX=0;entryY=0;entryDx=0;entryDy=0;endArrow=none;endFill=0;" edge="1" parent="1" source="FWaF_X9_jeXHNPgo_lxy-2" target="FWaF_X9_jeXHNPgo_lxy-1">
          <mxGeometry relative="1" as="geometry" />
        </mxCell>
        <mxCell id="FWaF_X9_jeXHNPgo_lxy-2" value="Name" style="ellipse;whiteSpace=wrap;html=1;" vertex="1" parent="1">
          <mxGeometry x="140" y="40" width="120" height="80" as="geometry" />
        </mxCell>
        <mxCell id="FWaF_X9_jeXHNPgo_lxy-14" style="edgeStyle=none;rounded=0;orthogonalLoop=1;jettySize=auto;html=1;exitX=0.5;exitY=1;exitDx=0;exitDy=0;entryX=0.5;entryY=0;entryDx=0;entryDy=0;endArrow=none;endFill=0;" edge="1" parent="1" source="FWaF_X9_jeXHNPgo_lxy-3" target="FWaF_X9_jeXHNPgo_lxy-1">
          <mxGeometry relative="1" as="geometry" />
        </mxCell>
        <mxCell id="FWaF_X9_jeXHNPgo_lxy-3" value="Email" style="ellipse;whiteSpace=wrap;html=1;" vertex="1" parent="1">
          <mxGeometry x="305" y="40" width="120" height="80" as="geometry" />
        </mxCell>
        <mxCell id="FWaF_X9_jeXHNPgo_lxy-15" style="edgeStyle=none;rounded=0;orthogonalLoop=1;jettySize=auto;html=1;entryX=1;entryY=0;entryDx=0;entryDy=0;endArrow=none;endFill=0;" edge="1" parent="1" source="FWaF_X9_jeXHNPgo_lxy-4" target="FWaF_X9_jeXHNPgo_lxy-1">
          <mxGeometry relative="1" as="geometry" />
        </mxCell>
        <mxCell id="FWaF_X9_jeXHNPgo_lxy-4" value="ID" style="ellipse;whiteSpace=wrap;html=1;" vertex="1" parent="1">
          <mxGeometry x="470" y="40" width="120" height="80" as="geometry" />
        </mxCell>
        <mxCell id="FWaF_X9_jeXHNPgo_lxy-6" value="Usage log" style="rounded=0;whiteSpace=wrap;html=1;" vertex="1" parent="1">
          <mxGeometry x="335" y="510" width="120" height="60" as="geometry" />
        </mxCell>
        <mxCell id="FWaF_X9_jeXHNPgo_lxy-10" style="rounded=0;orthogonalLoop=1;jettySize=auto;html=1;entryX=0;entryY=1;entryDx=0;entryDy=0;endArrow=none;endFill=0;" edge="1" parent="1" source="FWaF_X9_jeXHNPgo_lxy-7" target="FWaF_X9_jeXHNPgo_lxy-6">
          <mxGeometry relative="1" as="geometry" />
        </mxCell>
        <mxCell id="FWaF_X9_jeXHNPgo_lxy-7" value="ID" style="ellipse;whiteSpace=wrap;html=1;" vertex="1" parent="1">
          <mxGeometry x="105" y="630" width="120" height="80" as="geometry" />
        </mxCell>
        <mxCell id="FWaF_X9_jeXHNPgo_lxy-11" style="edgeStyle=none;rounded=0;orthogonalLoop=1;jettySize=auto;html=1;entryX=0.5;entryY=1;entryDx=0;entryDy=0;endArrow=none;endFill=0;" edge="1" parent="1" source="FWaF_X9_jeXHNPgo_lxy-8" target="FWaF_X9_jeXHNPgo_lxy-6">
          <mxGeometry relative="1" as="geometry" />
        </mxCell>
        <mxCell id="FWaF_X9_jeXHNPgo_lxy-8" value="Time used" style="ellipse;whiteSpace=wrap;html=1;" vertex="1" parent="1">
          <mxGeometry x="335" y="630" width="120" height="80" as="geometry" />
        </mxCell>
        <mxCell id="FWaF_X9_jeXHNPgo_lxy-12" style="edgeStyle=none;rounded=0;orthogonalLoop=1;jettySize=auto;html=1;entryX=1;entryY=0.867;entryDx=0;entryDy=0;entryPerimeter=0;endArrow=none;endFill=0;" edge="1" parent="1" source="FWaF_X9_jeXHNPgo_lxy-9" target="FWaF_X9_jeXHNPgo_lxy-6">
          <mxGeometry relative="1" as="geometry" />
        </mxCell>
        <mxCell id="FWaF_X9_jeXHNPgo_lxy-9" value="Incorrect time" style="ellipse;whiteSpace=wrap;html=1;" vertex="1" parent="1">
          <mxGeometry x="505" y="630" width="120" height="80" as="geometry" />
        </mxCell>
        <mxCell id="FWaF_X9_jeXHNPgo_lxy-17" style="edgeStyle=none;rounded=0;orthogonalLoop=1;jettySize=auto;html=1;entryX=0.5;entryY=1;entryDx=0;entryDy=0;endArrow=none;endFill=0;" edge="1" parent="1" source="FWaF_X9_jeXHNPgo_lxy-16" target="FWaF_X9_jeXHNPgo_lxy-1">
          <mxGeometry relative="1" as="geometry" />
        </mxCell>
        <mxCell id="FWaF_X9_jeXHNPgo_lxy-18" style="edgeStyle=none;rounded=0;orthogonalLoop=1;jettySize=auto;html=1;entryX=0.5;entryY=0;entryDx=0;entryDy=0;endArrow=none;endFill=0;" edge="1" parent="1" source="FWaF_X9_jeXHNPgo_lxy-16" target="FWaF_X9_jeXHNPgo_lxy-6">
          <mxGeometry relative="1" as="geometry" />
        </mxCell>
        <mxCell id="FWaF_X9_jeXHNPgo_lxy-16" value="Have" style="rhombus;whiteSpace=wrap;html=1;" vertex="1" parent="1">
          <mxGeometry x="335" y="320" width="80" height="80" as="geometry" />
        </mxCell>
        <mxCell id="FWaF_X9_jeXHNPgo_lxy-19" value="1" style="text;html=1;strokeColor=none;fillColor=none;align=center;verticalAlign=middle;whiteSpace=wrap;rounded=0;" vertex="1" parent="1">
          <mxGeometry x="355" y="230" width="60" height="30" as="geometry" />
        </mxCell>
        <mxCell id="FWaF_X9_jeXHNPgo_lxy-20" value="M" style="text;html=1;strokeColor=none;fillColor=none;align=center;verticalAlign=middle;whiteSpace=wrap;rounded=0;" vertex="1" parent="1">
          <mxGeometry x="380" y="480" width="60" height="30" as="geometry" />
        </mxCell>
      </root>
    </mxGraphModel>
  </diagram>
</mxfile>
